<?xml version="1.0" standalone="no"?>
<!DOCTYPE svg PUBLIC "-//W3C//DTD SVG 20010904//EN"
 "http://www.w3.org/TR/2001/REC-SVG-20010904/DTD/svg10.dtd">
<svg version="1.0" xmlns="http://www.w3.org/2000/svg"
 width="512.000000pt" height="512.000000pt" viewBox="0 0 512.000000 512.000000"
 preserveAspectRatio="xMidYMid meet">
<metadata>
Created by potrace 1.16, written by Peter Selinger 2001-2019
</metadata>
<g transform="translate(0.000000,512.000000) scale(0.100000,-0.100000)"
fill="#F95F62" stroke="none">
<path d="M2697 4915 c-404 -68 -656 -314 -749 -730 -18 -78 -21 -137 -25 -437
l-5 -348 -229 0 -229 0 0 -425 0 -425 230 0 230 0 0 -1180 0 -1180 495 0 495
0 0 1180 0 1180 335 0 c275 0 335 2 335 14 0 7 18 185 40 396 22 211 40 396
40 411 l0 29 -370 0 -370 0 0 278 c0 247 2 281 19 317 22 50 69 91 119 105 21
6 154 10 315 10 l277 0 0 410 0 410 -437 -1 c-310 -1 -461 -5 -516 -14z"/>
</g>
</svg>
