<?xml version="1.0" standalone="no"?>
<!DOCTYPE svg PUBLIC "-//W3C//DTD SVG 20010904//EN"
 "http://www.w3.org/TR/2001/REC-SVG-20010904/DTD/svg10.dtd">
<svg version="1.0" xmlns="http://www.w3.org/2000/svg"
 width="25.000000pt" height="25.000000pt" viewBox="0 0 25.000000 25.000000"
 preserveAspectRatio="xMidYMid meet">
<metadata>
Created by potrace 1.16, written by Peter Selinger 2001-2019
</metadata>
<g transform="translate(0.000000,25.000000) scale(0.002548,-0.002828)"
fill="#000000" stroke="none">
<path d="M2580 8829 c-650 -52 -1255 -325 -1718 -773 -455 -440 -734 -989
-829 -1631 -27 -183 -24 -582 5 -770 75 -482 246 -891 536 -1280 78 -105 352
-383 2212 -2245 l2124 -2125 2124 2125 c1860 1862 2134 2140 2212 2245 291
391 474 835 541 1315 24 175 24 559 -1 725 -67 456 -205 822 -446 1183 -157
235 -348 445 -565 622 -209 171 -538 357 -792 449 -582 211 -1220 223 -1806
34 -431 -138 -762 -341 -1120 -683 l-147 -142 -136 131 c-378 365 -742 582
-1209 719 -291 86 -681 126 -985 101z m410 -620 c253 -23 504 -92 730 -200
294 -141 390 -217 827 -652 l363 -361 367 365 c440 436 528 506 814 644 203
97 399 157 621 192 156 24 471 24 627 -1 1240 -191 2053 -1353 1806 -2581 -65
-325 -221 -655 -436 -923 -34 -42 -905 -921 -1936 -1952 l-1874 -1875 -842
846 c-1810 1818 -2885 2907 -2945 2981 -155 192 -296 447 -371 675 -136 408
-146 865 -30 1277 115 406 347 771 664 1044 453 389 1027 575 1615 521z"/>
</g>
</svg>
