<?xml version="1.0" standalone="no"?>
<!DOCTYPE svg PUBLIC "-//W3C//DTD SVG 20010904//EN"
 "http://www.w3.org/TR/2001/REC-SVG-20010904/DTD/svg10.dtd">
<svg version="1.0" xmlns="http://www.w3.org/2000/svg"
 width="512.000000pt" height="512.000000pt" viewBox="0 0 512.000000 512.000000"
 preserveAspectRatio="xMidYMid meet">
<metadata>
Created by potrace 1.16, written by Peter Selinger 2001-2019
</metadata>
<g transform="translate(0.000000,512.000000) scale(0.100000,-0.100000)"
fill="#F95F62" stroke="none">
<path d="M1730 4740 c-290 -13 -466 -46 -650 -125 -247 -106 -469 -328 -575
-575 -116 -271 -135 -477 -135 -1480 0 -1003 19 -1209 135 -1480 108 -253 331
-473 589 -580 105 -44 252 -84 371 -100 311 -41 1879 -41 2190 0 296 40 541
154 726 339 185 185 299 430 339 726 41 311 41 1879 0 2190 -78 587 -456 974
-1037 1060 -57 9 -204 20 -326 25 -252 11 -1363 11 -1627 0z m1750 -410 c207
-16 374 -62 490 -135 63 -39 174 -149 216 -212 80 -121 127 -285 145 -513 17
-199 17 -1621 0 -1820 -25 -310 -93 -481 -248 -631 -110 -106 -209 -158 -379
-198 -162 -38 -335 -44 -1144 -44 -809 0 -982 6 -1144 44 -170 40 -269 92
-379 198 -155 150 -223 321 -248 631 -17 199 -17 1621 0 1820 18 219 62 383
136 500 39 63 149 174 212 216 99 66 265 120 428 139 196 24 1623 27 1915 5z"/>
<path d="M3635 3978 c-32 -11 -91 -52 -113 -78 -7 -8 -25 -39 -39 -69 -22 -45
-25 -63 -21 -120 11 -144 105 -238 249 -249 112 -8 206 48 255 153 30 64 32
161 5 221 -24 52 -83 111 -135 135 -46 21 -151 24 -201 7z"/>
<path d="M2465 3684 c-451 -48 -814 -327 -965 -742 -86 -235 -86 -529 0 -764
137 -374 458 -649 846 -724 117 -23 311 -23 428 0 450 87 805 442 892 892 23
117 23 311 0 428 -75 388 -350 709 -723 846 -44 16 -116 35 -159 44 -86 16
-254 27 -319 20z m250 -419 c206 -44 401 -200 497 -400 170 -355 15 -783 -347
-957 -355 -170 -783 -15 -957 347 -170 355 -15 783 347 957 44 21 110 45 145
52 86 19 228 19 315 1z"/>
</g>
</svg>
