<?xml version="1.0" standalone="no"?>
<!DOCTYPE svg PUBLIC "-//W3C//DTD SVG 20010904//EN"
 "http://www.w3.org/TR/2001/REC-SVG-20010904/DTD/svg10.dtd">
<svg version="1.0" xmlns="http://www.w3.org/2000/svg"
 width="512.000000pt" height="512.000000pt" viewBox="0 0 512.000000 512.000000"
 preserveAspectRatio="xMidYMid meet">
<metadata>
Created by potrace 1.16, written by Peter Selinger 2001-2019
</metadata>
<g transform="translate(0.000000,512.000000) scale(0.100000,-0.100000)"
fill="#F95F62" stroke="none">
<path d="M3454 4639 c-124 -9 -240 -41 -360 -99 -288 -140 -491 -384 -571
-689 -21 -79 -26 -121 -27 -236 0 -77 2 -167 7 -199 l8 -59 -93 7 c-128 10
-360 50 -498 87 -577 153 -1074 458 -1473 904 -45 50 -85 92 -89 93 -15 7 -88
-162 -114 -263 -72 -283 -25 -580 132 -833 52 -82 195 -239 251 -273 19 -12
32 -23 30 -26 -8 -8 -191 26 -257 48 -36 11 -94 34 -129 50 -35 16 -65 29 -67
29 -9 0 -3 -105 11 -186 52 -301 219 -554 477 -721 79 -51 133 -76 246 -113
l83 -27 -58 -11 c-104 -20 -206 -24 -297 -12 -49 6 -91 8 -94 6 -11 -11 70
-182 125 -265 164 -247 458 -430 733 -457 110 -11 109 -10 49 -55 -351 -263
-873 -419 -1323 -394 -70 3 -134 9 -142 12 -8 3 -14 1 -14 -4 0 -14 160 -107
305 -178 309 -149 626 -241 967 -280 162 -18 497 -21 661 -4 584 57 1113 271
1557 629 675 543 1109 1452 1110 2321 l0 157 88 70 c112 89 300 285 376 391
32 45 56 84 54 87 -3 2 -45 -11 -94 -30 -49 -19 -130 -46 -180 -60 -85 -25
-286 -68 -291 -62 -1 1 25 22 58 46 126 92 247 240 319 393 71 149 73 147 -83
68 -134 -68 -356 -148 -474 -172 l-62 -13 -59 56 c-201 192 -490 288 -798 267z"/>
</g>
</svg>
